# xmcd
#
# Track frame offsets:
#	150
#	14616
#	28881
#	41432
#	52825
#	63405
#	74352
#	86470
#	99042
#	114974
#	127379
#	139148
#	155349
#	167526
#	186366
#	199765
#
# Disc length: 2809 seconds
#
# Revision: 0
# Processed by: cddbd v1.5.1PL2 Copyright (c) Steve Scherf et al.
# Submitted via: audiograbber 1.83.01
#
DISCID=d70af710
DTITLE=Greg Keckler - I Ride an Old Paint
DYEAR=2005
DGENRE=Country
TTITLE0=Tumblin' Tumbleweeds
TTITLE1=Song of Wyoming
TTITLE2=Diamond Joe
TTITLE3=A Good Woman's Love
TTITLE4=Empty Saddles
TTITLE5=Along the Navajo Trail
TTITLE6=Philidelphia Lawyer
TTITLE7=Red River Valley
TTITLE8=The Old Double Diamond
TTITLE9=Ridin' Down the Canyon
TTITLE10=You're the Only Star in My Blue Heaven
TTITLE11=Ranger's Command
TTITLE12=Carry Me Back to the Lone Prairie
TTITLE13=Whoopee Ti Yi Yo I Ride an Old Paint
TTITLE14=Dusty Skies
TTITLE15=My Little Buckaroo
EXTD=
EXTT0=
EXTT1=
EXTT2=
EXTT3=
EXTT4=
EXTT5=
EXTT6=
EXTT7=
EXTT8=
EXTT9=
EXTT10=
EXTT11=
EXTT12=
EXTT13=
EXTT14=
EXTT15=
PLAYORDER=
